<?xml version="1.0" encoding="UTF-8"?>
<svg width="100" height="100" viewBox="0 0 100 100" xmlns="http://www.w3.org/2000/svg">
  <path fill="#FFFFFF" d="M80.4,19.6c-7.8-7.8-18.8-11.4-34.3-11c-0.4,0-0.8,0.2-1.1,0.5c-0.3,0.3-0.5,0.7-0.5,1.1
    c-0.1,5.6-0.3,14.4-2.5,19c-1.3,2.6-3.6,3.7-5.9,4.8c-3,1.4-6.1,2.8-8.5,8c-1.9,4.1-1.9,9.3-0.2,15.4c0.1,0.5,0.5,0.9,1,1.1
    c0.5,0.2,1,0.1,1.5-0.1c2.3-1.3,8.5-5.8,11.4-12.3c0.1-0.3,0.3-0.6,0.5-0.8c1.1-1.2,4-2.9,6.7-3.6c1.9-0.5,5-0.8,8.4-0.8
    c4.9,0,8.3,0.6,8.7,0.7c0.1,0,0.2,0,0.3,0c0.5,0,1-0.2,1.4-0.6c3.3-3.4,8.3-8.7,9.6-13c1.7-5.7,4.7-8.1,7.5-10.3
    c1.8-1.4,3.6-2.9,4.9-5.4c0.2-0.3,0.2-0.7,0.2-1.1C88,27.1,85.8,24.9,80.4,19.6z M76,36c-3,0-5.5-2.5-5.5-5.5c0-3,2.5-5.5,5.5-5.5
    c3,0,5.5,2.5,5.5,5.5C81.5,33.5,79,36,76,36z"/>
  <path fill="#FFFFFF" d="M63.5,47.5c-0.3-0.3-0.7-0.5-1.1-0.5c-0.4,0-0.8,0.1-1.1,0.3c-0.1,0-8.3,5.2-16.2,13.1c-0.6,0.6-0.6,1.6,0,2.2
    c0.3,0.3,0.7,0.4,1.1,0.4c0.4,0,0.8-0.2,1.1-0.5c7.3-7.3,15-12.2,15.1-12.3c0.3-0.2,0.5-0.5,0.6-0.9C63.9,48.9,63.8,48.1,63.5,47.5z"/>
  <path fill="#FFFFFF" d="M26.4,73.6c-0.4-0.4-1.1-0.5-1.6-0.3c-0.3,0.1-6.2,2.6-9.9,7.8c-4.2,6-2.9,11.3-2.8,11.6
    c0.1,0.5,0.5,0.9,1,1.1c0.2,0.1,0.3,0.1,0.5,0.1c0.3,0,0.6-0.1,0.9-0.3c0.1-0.1,5.1-3.9,8.3-6.9c3-2.8,4.4-5.2,4.2-7.1
    C27,77.9,26.5,74.7,26.4,73.6z"/>
</svg>
