<?xml version="1.0" encoding="UTF-8"?>
<svg width="100" height="100" viewBox="0 0 100 100" xmlns="http://www.w3.org/2000/svg">
  <circle fill="none" stroke="#FFFFFF" stroke-width="3" cx="50" cy="50" r="35"/>
  <path fill="none" stroke="#FFFFFF" stroke-width="3" d="M25,30 C35,20 65,20 75,30"/>
  <path fill="none" stroke="#FFFFFF" stroke-width="3" d="M25,70 C35,80 65,80 75,70"/>
  <path fill="none" stroke="#FFFFFF" stroke-width="3" d="M30,25 C20,35 20,65 30,75"/>
  <path fill="none" stroke="#FFFFFF" stroke-width="3" d="M70,25 C80,35 80,65 70,75"/>
  <path fill="none" stroke="#FFFFFF" stroke-width="3" d="M37,37 C43,43 57,43 63,37"/>
  <path fill="none" stroke="#FFFFFF" stroke-width="3" d="M37,63 C43,57 57,57 63,63"/>
  <path fill="#FFFFFF" d="M45,50 L55,50 L50,55 Z"/>
  <path fill="#FFFFFF" d="M45,50 L55,50 L50,45 Z"/>
</svg>
